<?xml version="1.0" encoding="UTF-8"?>
<!DOCTYPE svg PUBLIC "-//W3C//DTD SVG 1.1//EN" "http://www.w3.org/Graphics/SVG/1.1/DTD/svg11.dtd">
<svg xmlns="http://www.w3.org/2000/svg" version="1.1" width="232px" height="63px" style="shape-rendering:geometricPrecision; text-rendering:geometricPrecision; image-rendering:optimizeQuality; fill-rule:evenodd; clip-rule:evenodd" xmlns:xlink="http://www.w3.org/1999/xlink">
<g><path style="opacity:1" fill="#6dcdf2" d="M 46.5,42.5 C 46.5299,41.5028 46.0299,40.8361 45,40.5C 42.8014,41.6454 40.6348,41.6454 38.5,40.5C 40.8466,35.8068 43.1799,31.1401 45.5,26.5C 46.1667,26.5 46.5,26.1667 46.5,25.5C 48.4278,26.5363 50.4278,27.0363 52.5,27C 42.5303,19.3621 32.8636,19.6954 23.5,28C 25.5056,27.8497 27.5056,27.3497 29.5,26.5C 28.5592,28.0495 27.8925,29.7162 27.5,31.5C 25.7685,35.295 23.7685,38.9617 21.5,42.5C 14.7638,42.639 8.93043,40.3057 4,35.5C -0.233876,24.6408 3.43279,17.9741 15,15.5C 16.7633,15.9755 18.43,16.6422 20,17.5C 23.5472,2.80922 32.3805,-1.69078 46.5,4C 51.4812,7.9324 53.9812,13.0991 54,19.5C 61.5529,18.6889 66.0529,22.1889 67.5,30C 66.8689,33.5973 65.2022,36.5973 62.5,39C 57.3013,40.884 51.968,42.0507 46.5,42.5 Z M 49.5,13.5 C 46.191,9.69096 42.191,6.85763 37.5,5C 43.754,4.62867 47.754,7.462 49.5,13.5 Z M 63.5,26.5 C 62.0384,25.5423 60.7051,24.3756 59.5,23C 61.8411,22.8319 63.1744,23.9986 63.5,26.5 Z"/></g>
<g><path style="opacity:1" fill="#74d1f4" d="M 152.5,6.5 C 160.141,7.56406 161.807,11.0641 157.5,17C 150.657,18.6937 147.824,16.1937 149,9.5C 150.145,8.36362 151.312,7.36362 152.5,6.5 Z"/></g>
<g><path style="opacity:1" fill="#70cff4" d="M 206.5,10.5 C 211.777,9.93118 216.777,10.7645 221.5,13C 224.803,16.795 225.303,20.9617 223,25.5C 220.414,27.5448 217.58,29.2115 214.5,30.5C 213.614,31.325 213.281,32.325 213.5,33.5C 205.86,35.0588 203.36,32.3922 206,25.5C 208.333,23.9938 210.5,22.3271 212.5,20.5C 209.047,19.7177 205.714,19.3843 202.5,19.5C 200.221,14.555 201.555,11.555 206.5,10.5 Z"/></g>
<g><path style="opacity:1" fill="#70cff4" d="M 77.5,10.5 C 83.1764,10.3339 88.8431,10.5006 94.5,11C 106.614,11.7372 110.447,17.5706 106,28.5C 101.293,30.2826 100.459,33.1159 103.5,37C 105.345,38.128 107.345,38.628 109.5,38.5C 109.777,41.4475 109.444,44.2809 108.5,47C 103.601,48.1247 99.1007,47.2914 95,44.5C 93.2054,40.9484 91.7054,37.2817 90.5,33.5C 89.5078,37.7828 89.1744,42.1161 89.5,46.5C 85.5,46.5 81.5,46.5 77.5,46.5C 77.5,34.5 77.5,22.5 77.5,10.5 Z M 89.5,19.5 C 91.8568,19.3367 94.1902,19.5034 96.5,20C 97.8602,21.9376 97.5268,23.6043 95.5,25C 93.5273,25.4955 91.5273,25.6621 89.5,25.5C 89.5,23.5 89.5,21.5 89.5,19.5 Z"/></g>
<g><path style="opacity:1" fill="#508398" d="M 31.5,18.5 C 33.1992,18.3398 34.8659,18.5065 36.5,19C 32.7247,20.043 29.058,21.043 25.5,22C 27.4319,20.5415 29.4319,19.3748 31.5,18.5 Z"/></g>
<g><path style="opacity:1" fill="#6bcef4" d="M 119.5,20.5 C 124.447,19.6276 128.613,20.9609 132,24.5C 132.49,23.2068 132.657,21.8734 132.5,20.5C 136.167,20.5 139.833,20.5 143.5,20.5C 143.5,29.1667 143.5,37.8333 143.5,46.5C 139.833,46.5 136.167,46.5 132.5,46.5C 132.557,42.8669 131.557,42.7002 129.5,46C 116.353,48.5241 110.52,43.0241 112,29.5C 113.614,25.7229 116.114,22.7229 119.5,20.5 Z M 126.5,28.5 C 131.992,29.8093 133.326,32.8093 130.5,37.5C 125.995,39.6765 123.328,38.3431 122.5,33.5C 123.127,31.2127 124.46,29.546 126.5,28.5 Z"/></g>
<g><path style="opacity:1" fill="#70d0f4" d="M 167.5,20.5 C 170.85,20.335 174.183,20.5017 177.5,21C 178.191,22.0674 178.691,23.2341 179,24.5C 184.667,19.1667 190.333,19.1667 196,24.5C 198.239,31.632 199.073,38.9653 198.5,46.5C 194.5,46.5 190.5,46.5 186.5,46.5C 186.666,40.8236 186.499,35.1569 186,29.5C 182.592,27.7767 180.259,28.7767 179,32.5C 178.501,37.1548 178.334,41.8215 178.5,46.5C 174.833,46.5 171.167,46.5 167.5,46.5C 167.5,37.8333 167.5,29.1667 167.5,20.5 Z"/></g>
<g><path style="opacity:1" fill="#3f4448" d="M 46.5,25.5 C 43.6984,25.0177 40.865,24.6843 38,24.5C 34.8502,24.3603 32.0169,25.027 29.5,26.5C 27.5056,27.3497 25.5056,27.8497 23.5,28C 32.8636,19.6954 42.5303,19.3621 52.5,27C 50.4278,27.0363 48.4278,26.5363 46.5,25.5 Z"/></g>
<g><path style="opacity:1" fill="#6ccef4" d="M 148.5,20.5 C 152.167,20.5 155.833,20.5 159.5,20.5C 159.334,26.1764 159.501,31.8431 160,37.5C 161.356,38.3802 162.856,38.7135 164.5,38.5C 165.812,45.8493 162.812,48.6826 155.5,47C 153.152,46.6541 151.319,45.4875 150,43.5C 148.568,35.9458 148.068,28.2792 148.5,20.5 Z"/></g>
<g><path style="opacity:1" fill="#cdad1d" d="M 46.5,25.5 C 46.5,26.1667 46.1667,26.5 45.5,26.5C 38.8871,26.1513 32.8871,27.818 27.5,31.5C 27.8925,29.7162 28.5592,28.0495 29.5,26.5C 32.0169,25.027 34.8502,24.3603 38,24.5C 40.865,24.6843 43.6984,25.0177 46.5,25.5 Z"/></g>
<g><path style="opacity:1" fill="#f9d024" d="M 45.5,26.5 C 43.1799,31.1401 40.8466,35.8068 38.5,40.5C 40.6348,41.6454 42.8014,41.6454 45,40.5C 46.0299,40.8361 46.5299,41.5028 46.5,42.5C 43.6932,48.1136 40.8599,53.7802 38,59.5C 37.5014,55.8484 37.3347,52.1817 37.5,48.5C 31.5,48.5 25.5,48.5 19.5,48.5C 19.6036,46.2972 20.2702,44.2972 21.5,42.5C 23.7685,38.9617 25.7685,35.295 27.5,31.5C 32.8871,27.818 38.8871,26.1513 45.5,26.5 Z"/></g>
<g><path style="opacity:1" fill="#74d1f4" d="M 207.5,36.5 C 215.385,37.4261 217.052,40.9261 212.5,47C 205.837,48.6664 203.004,46.1664 204,39.5C 205.145,38.3636 206.312,37.3636 207.5,36.5 Z"/></g>
</svg>
